<?xml version="1.0" encoding="utf-8"?>
<!-- Generator: Adobe Illustrator 23.0.1, SVG Export Plug-In . SVG Version: 6.00 Build 0)  -->
<svg version="1.1" id="Layer_1" xmlns="http://www.w3.org/2000/svg" xmlns:xlink="http://www.w3.org/1999/xlink" x="0px" y="0px"
	 viewBox="0 0 512 512" style="enable-background:new 0 0 512 512;" xml:space="preserve">
<style type="text/css">
	.st0{fill-rule:evenodd;clip-rule:evenodd;fill:#1B1B1B;}
</style>
<path class="st0" d="M256,456c-87.4,0-158.5-72.2-158.5-160.9c0-50.3,25.2-91.7,26.3-93.5c1.7-2.7,4.8-4.3,7.9-3.9
	c3.2,0.3,5.9,2.4,7,5.4c0.2,0.4,14,36.5,49.5,56c-2.1-42.2,1.6-163.6,106.7-202.6c2.9-1.1,6.2-0.5,8.6,1.7c2.3,2.1,3.2,5.3,2.4,8.4
	c-0.3,1.1-26.6,99.2,19.2,141.2c4-19.7,14.8-55.1,43-75.2c2.3-1.7,5.3-2,7.9-1c2.6,1,4.6,3.3,5.1,6.1c5.2,26.1,11.3,43.6,16.7,58.9
	c9.1,25.9,16.9,48.2,16.9,98.4C414.5,383.8,343.4,456,256,456z M130.7,224.5c-7,15.4-16.5,41.6-16.5,70.5
	c0,79.5,63.6,144.2,141.9,144.2s141.9-64.7,141.9-144.2c0-47.4-7-67.5-15.9-92.9c-4.6-13-9.6-27.5-14.3-47.2
	c-24.5,26-28.2,68-28.2,68.4c-0.2,2.9-1.9,5.4-4.5,6.7c-2.6,1.3-5.6,1.2-8.1-0.3c-56.1-33.6-47.5-116-40.8-151.3
	c-39.5,19.8-65,56.2-76.1,108.3c-9.4,44.5-4.1,84.3-4.1,84.7c0.4,2.9-0.8,5.8-3.1,7.7c-2.3,1.8-5.4,2.3-8.2,1.3
	C160.3,267.5,140.5,241.4,130.7,224.5z"/>
</svg>
