<svg width="39" height="40" viewBox="0 0 39 40" fill="none" xmlns="http://www.w3.org/2000/svg">
<g clip-path="url(#clip0_1_102)">
<ellipse cx="22.125" cy="24.8214" rx="6.02679" ry="8.4375" fill="#FFCE51"/>
<path d="M31.7358 20.5625C29.2126 14.0054 20.2287 13.6518 22.3983 4.12143C22.559 3.41429 21.8037 2.86786 21.193 3.2375C15.359 6.67679 11.1644 13.5714 14.684 22.6036C14.9733 23.3429 14.1055 24.0339 13.4787 23.5518C10.5697 21.35 10.2644 18.1839 10.5215 15.9179C10.618 15.0821 9.5251 14.6804 9.05902 15.3714C7.96617 17.0429 6.85724 19.7429 6.85724 23.8089C7.46795 32.8089 15.0697 35.5732 17.8019 35.9268C21.7072 36.425 25.934 35.7018 28.9715 32.9214C32.3144 29.8197 33.5358 24.8696 31.7358 20.5625ZM16.8215 28.6464C19.1358 28.0839 20.3251 26.4125 20.6465 24.9339C21.1769 22.6357 19.1037 20.3857 20.5019 16.7536C21.0322 19.7589 25.7572 21.6393 25.7572 24.9179C25.8858 28.9839 21.4822 32.4714 16.8215 28.6464Z" fill="#FF7324"/>
</g>
<defs>
<clipPath id="clip0_1_102">
<rect width="38.5714" height="38.5714" fill="white" transform="translate(0.428589 0.714302)"/>
</clipPath>
</defs>
</svg>
