<svg width="13" height="16" viewBox="0 0 13 16" fill="none" xmlns="http://www.w3.org/2000/svg">
<path d="M7.85616 6.17815C7.85616 6.17815 8.55342 2.12769 5.70829 0.369232C5.66591 1.06518 5.47534 1.74447 5.14904 2.36273C4.82274 2.981 4.36805 3.52433 3.81466 3.95723C2.59959 5.01231 0.314331 7.38462 0.338632 9.91385C0.329902 10.995 0.62728 12.0571 1.19722 12.9803C1.76715 13.9035 2.58697 14.651 3.56417 15.1385C3.59908 14.6503 3.7323 14.1739 3.95604 13.7372C4.17977 13.3005 4.4895 12.9123 4.86709 12.5954C5.18705 12.3524 5.45482 12.0489 5.65476 11.7026C5.85471 11.3563 5.98285 10.9742 6.03169 10.5785C6.86815 11.0176 7.57488 11.6637 8.08276 12.4534C8.59064 13.2432 8.88228 14.1496 8.92915 15.084V15.096C9.85149 14.6787 10.639 14.0176 11.2044 13.1858C11.7699 12.354 12.0914 11.3838 12.1332 10.3828C12.3351 8.00677 11.0172 4.776 9.84793 3.72C9.40648 4.69334 8.72095 5.53939 7.85616 6.17815Z" fill="url(#paint0_linear_4_79)"/>
<defs>
<linearGradient id="paint0_linear_4_79" x1="0.33844" y1="7.75385" x2="12.1538" y2="7.75385" gradientUnits="userSpaceOnUse">
<stop stop-color="#FF4E50"/>
<stop offset="1" stop-color="#F9D423"/>
</linearGradient>
</defs>
</svg>
